  <svg width="500" height="500" viewBox="-700 -700 1400 1400" xmlns="http://www.w3.org/2000/svg">
  <style>
    .text1 { fill: black; font: 50px sans-serif; }
    .text2 { fill: white; font: 50px sans-serif; }
    .line2 { stroke: white; stroke-width:5; }
    .text3 { fill: black; font: 50px sans-serif; }
    .line3 { stroke: black; stroke-width:5; }
    .text4 { fill: white; font: 50px sans-serif; }
    .line4 { stroke: white; stroke-width:5; }
    .text5 { fill: black; font: 50px sans-serif; }
    .line5 { stroke: black; stroke-width:5; }
  </style>

  <circle cx="0" cy="0" r="505" fill="black" />
  <circle cx="0" cy="0" r="500" fill="white" />
  <circle cx="0" cy="0" r="400" fill="black" />
  <circle cx="0" cy="0" r="300" fill="white" />
  <circle cx="0" cy="0" r="200" fill="black" />
  <circle cx="0" cy="0" r="100" fill="white" />
  <line x1="-415" y1="-415" x2="-390" y2="-390" stroke="black" stroke-width="20"/>
  <polygon points="-375 -415, -415 -375, -360 -360" />

  <path id="circle2" fill="transparent"
      d="
      M 0 0
      m -130, 0
      a 130,130 0 1,1 260,0
      a 130,130 0 1,1 -260,0
      "
  />
  <path id="circle3" fill="transparent"
      d="
      M 0 0
      m -230, 0
      a 230,230 0 1,1 460,0
      a 230,230 0 1,1 -460,0
      "
  />
  <path id="circle4" fill="transparent"
      d="
      M 0 0
      m -330, 0
      a 330,330 0 1,1 660,0
      a 330,330 0 1,1 -660,0
      "
  />
  <path id="circle5" fill="transparent"
      d="
      M 0 0
      m -430, 0
      a 430,430 0 1,1 860,0
      a 430,430 0 1,1 -860,0
      "
  />

  <!-- First circle -->
  <text x="0" y="0" dominant-baseline="middle" text-anchor="middle" class="text1">CURL</text>

  <!-- Second circle -->
  <line transform="rotate(-24 0,0)" x1="-200" x2="-100" y1="0" y2="0" class="line2"/>
  <text transform="rotate(-2 0,0)" class="text2"><textPath href="#circle2">LATER</textPath></text>
  <line transform="rotate(93 0,0)" x1="-200" x2="-100" y1="0" y2="0" class="line2"/>
  <text transform="rotate(115 0,0)" class="text2"><textPath href="#circle2">PEACE</textPath></text>
  <line transform="rotate(214 0,0)" x1="-200" x2="-100" y1="0" y2="0" class="line2"/>
  <text transform="rotate(237 0,0)" class="text2"><textPath href="#circle2">SHAPE</textPath></text>

  <!-- Third circle -->
  <line transform="rotate(49 0,0)" x1="-300" x2="-200" y1="0" y2="0" class="line3"/>
  <text transform="rotate(61 0,0)" class="text3"><textPath href="#circle3">LEVER</textPath></text>
  <line transform="rotate(113 0,0)" x1="-300" x2="-200" y1="0" y2="0" class="line3"/>
  <text transform="rotate(126 0,0)" class="text3"><textPath href="#circle3">WEAPON</textPath></text>
  <line transform="rotate(193 0,0)" x1="-300" x2="-200" y1="0" y2="0" class="line3"/>
  <text transform="rotate(205 0,0)" class="text3"><textPath href="#circle3">LATTER</textPath></text>
  <line transform="rotate(264 0,0)" x1="-300" x2="-200" y1="0" y2="0" class="line3"/>
  <text transform="rotate(277 0,0)" class="text3"><textPath href="#circle3">SCAPE</textPath></text>
  <line transform="rotate(331 0,0)" x1="-300" x2="-200" y1="0" y2="0" class="line3"/>
  <text transform="rotate(343 0,0)" class="text3"><textPath href="#circle3">FORMER</textPath></text>

  <!-- Fourth circle -->
  <line transform="rotate(-3 0,0)" x1="-400" x2="-300" y1="0" y2="0" class="line4"/>
  <text transform="rotate(2 0,0)" class="text4"><textPath href="#circle4">ENERGY</textPath></text>
  <line transform="rotate(44 0,0)" x1="-400" x2="-300" y1="0" y2="0" class="line4"/>
  <text transform="rotate(50 0,0)" class="text4"><textPath href="#circle4">READING</textPath></text>
  <line transform="rotate(95 0,0)" x1="-400" x2="-300" y1="0" y2="0" class="line4"/>
  <text transform="rotate(101 0,0)" class="text4"><textPath href="#circle4">COURSE</textPath></text>
  <line transform="rotate(144 0,0)" x1="-400" x2="-300" y1="0" y2="0" class="line4"/>
  <text transform="rotate(149 0,0)" class="text4"><textPath href="#circle4">WAR</textPath></text>
  <line transform="rotate(175 0,0)" x1="-400" x2="-300" y1="0" y2="0" class="line4"/>
  <text transform="rotate(181 0,0)" class="text4"><textPath href="#circle4">FORME</textPath></text>
  <line transform="rotate(218 0,0)" x1="-400" x2="-300" y1="0" y2="0" class="line4"/>
  <text transform="rotate(223 0,0)" class="text4"><textPath href="#circle4">PACE</textPath></text>
  <line transform="rotate(252 0,0)" x1="-400" x2="-300" y1="0" y2="0" class="line4"/>
  <text transform="rotate(258 0,0)" class="text4"><textPath href="#circle4">COARSE</textPath></text>
  <line transform="rotate(300 0,0)" x1="-400" x2="-300" y1="0" y2="0" class="line4"/>
  <text transform="rotate(306 0,0)" class="text4"><textPath href="#circle4">TREADING</textPath></text>

  <!-- Fifth circle -->
  <line transform="rotate(13 0,0)" x1="-500" x2="-400" y1="0" y2="0" class="line5"/>
  <text transform="rotate(21 0,0)" class="text5"><textPath href="#circle5">DESTRUCTION</textPath></text>
  <line transform="rotate(78 0,0)" x1="-500" x2="-400" y1="0" y2="0" class="line5"/>
  <text transform="rotate(86 0,0)" class="text5"><textPath href="#circle5">CAPE</textPath></text>
  <line transform="rotate(113 0,0)" x1="-500" x2="-400" y1="0" y2="0" class="line5"/>
  <text transform="rotate(122 0,0)" class="text5"><textPath href="#circle5">SOURCE</textPath></text>
  <line transform="rotate(159 0,0)" x1="-500" x2="-400" y1="0" y2="0" class="line5"/>
  <text transform="rotate(167 0,0)" class="text5"><textPath href="#circle5">GRADIENT</textPath></text>
  <line transform="rotate(210 0,0)" x1="-500" x2="-400" y1="0" y2="0" class="line5"/>
  <text transform="rotate(219 0,0)" class="text5"><textPath href="#circle5">GRAINED</textPath></text>
  <line transform="rotate(258 0,0)" x1="-500" x2="-400" y1="0" y2="0" class="line5"/>
  <text transform="rotate(267 0,0)" class="text5"><textPath href="#circle5">FORM</textPath></text>
  <line transform="rotate(295 0,0)" x1="-500" x2="-400" y1="0" y2="0" class="line5"/>
  <text transform="rotate(303 0,0)" class="text5"><textPath href="#circle5">LAVER</textPath></text>
  <line transform="rotate(334 0,0)" x1="-500" x2="-400" y1="0" y2="0" class="line5"/>
  <text transform="rotate(343 0,0)" class="text5"><textPath href="#circle5">LEVEL</textPath></text>

</svg>
