  <svg width="500" height="500" viewBox="-550 -550 1100 1100" xmlns="http://www.w3.org/2000/svg">
  <style>
    .text1 { fill: black; font: 50px sans-serif; }
    .text2 { fill: white; font: 50px sans-serif; }
    .line2 { stroke: white; stroke-width:5; }
    .text3 { fill: black; font: 50px sans-serif; }
    .line3 { stroke: black; stroke-width:5; }
    .text4 { fill: white; font: 50px sans-serif; }
    .line4 { stroke: white; stroke-width:5; }
    .text5 { fill: black; font: 50px sans-serif; }
    .line5 { stroke: black; stroke-width:5; }
  </style>

  <circle cx="0" cy="0" r="505" fill="black" />
  <circle cx="0" cy="0" r="500" fill="white" />
  <circle cx="0" cy="0" r="400" fill="black" />
  <circle cx="0" cy="0" r="300" fill="white" />
  <circle cx="0" cy="0" r="200" fill="black" />
  <circle cx="0" cy="0" r="100" fill="white" />
  <line x1="-415" y1="-415" x2="-390" y2="-390" stroke="black" stroke-width="20"/>
  <polygon points="-375 -415, -415 -375, -360 -360" />

  <path id="circle2" fill="transparent"
      d="
      M 0 0
      m -130, 0
      a 130,130 0 1,1 260,0
      a 130,130 0 1,1 -260,0
      "
  />
  <path id="circle3" fill="transparent"
      d="
      M 0 0
      m -230, 0
      a 230,230 0 1,1 460,0
      a 230,230 0 1,1 -460,0
      "
  />
  <path id="circle4" fill="transparent"
      d="
      M 0 0
      m -330, 0
      a 330,330 0 1,1 660,0
      a 330,330 0 1,1 -660,0
      "
  />
  <path id="circle5" fill="transparent"
      d="
      M 0 0
      m -430, 0
      a 430,430 0 1,1 860,0
      a 430,430 0 1,1 -860,0
      "
  />

  <!-- First circle -->
  <text x="0" y="0" dominant-baseline="middle" text-anchor="middle" class="text1">ATOM</text>

  <!-- Second circle -->
  <line transform="rotate(21 0,0)" x1="-200" x2="-100" y1="0" y2="0" class="line2"/>
  <text transform="rotate(33 0,0)" class="text2"><textPath href="#circle2">CARTOON</textPath></text>
  <line transform="rotate(157 0,0)" x1="-200" x2="-100" y1="0" y2="0" class="line2"/>
  <text transform="rotate(169 0,0)" class="text2"><textPath href="#circle2">MEAT</textPath></text>
  <line transform="rotate(244 0,0)" x1="-200" x2="-100" y1="0" y2="0" class="line2"/>
  <text transform="rotate(256 0,0)" class="text2"><textPath href="#circle2">BACTERIA</textPath></text>

  <!-- Third circle -->
  <line transform="rotate(9 0,0)" x1="-300" x2="-200" y1="0" y2="0" class="line3"/>
  <text transform="rotate(21 0,0)" class="text3"><textPath href="#circle3">DUST</textPath></text>
  <line transform="rotate(68 0,0)" x1="-300" x2="-200" y1="0" y2="0" class="line3"/>
  <text transform="rotate(81 0,0)" class="text3"><textPath href="#circle3">UNCLEAR</textPath></text>
  <line transform="rotate(152 0,0)" x1="-300" x2="-200" y1="0" y2="0" class="line3"/>
  <text transform="rotate(165 0,0)" class="text3"><textPath href="#circle3">UNCLEAN</textPath></text>
  <line transform="rotate(236 0,0)" x1="-300" x2="-200" y1="0" y2="0" class="line3"/>
  <text transform="rotate(249 0,0)" class="text3"><textPath href="#circle3">ENGINE</textPath></text>
  <line transform="rotate(309 0,0)" x1="-300" x2="-200" y1="0" y2="0" class="line3"/>
  <text transform="rotate(322 0,0)" class="text3"><textPath href="#circle3">CYAN</textPath></text>

  <!-- Fourth circle -->
  <line transform="rotate(4 0,0)" x1="-400" x2="-300" y1="0" y2="0" class="line4"/>
  <text transform="rotate(11 0,0)" class="text4"><textPath href="#circle4">ADUST</textPath></text>
  <line transform="rotate(49 0,0)" x1="-400" x2="-300" y1="0" y2="0" class="line4"/>
  <text transform="rotate(57 0,0)" class="text4"><textPath href="#circle4">ENGINER</textPath></text>
  <line transform="rotate(104 0,0)" x1="-400" x2="-300" y1="0" y2="0" class="line4"/>
  <text transform="rotate(112 0,0)" class="text4"><textPath href="#circle4">NUCLEAR</textPath></text>
  <line transform="rotate(162 0,0)" x1="-400" x2="-300" y1="0" y2="0" class="line4"/>
  <text transform="rotate(170 0,0)" class="text4"><textPath href="#circle4">CALIBRATE</textPath></text>
  <line transform="rotate(226 0,0)" x1="-400" x2="-300" y1="0" y2="0" class="line4"/>
  <text transform="rotate(234 0,0)" class="text4"><textPath href="#circle4">DIAMOND</textPath></text>
  <line transform="rotate(283 0,0)" x1="-400" x2="-300" y1="0" y2="0" class="line4"/>
  <text transform="rotate(291 0,0)" class="text4"><textPath href="#circle4">MOAT</textPath></text>
  <line transform="rotate(324 0,0)" x1="-400" x2="-300" y1="0" y2="0" class="line4"/>
  <text transform="rotate(332 0,0)" class="text4"><textPath href="#circle4">CLAN</textPath></text>

  <!-- Fifth circle -->
  <line transform="rotate(21 0,0)" x1="-500" x2="-400" y1="0" y2="0" class="line5"/>
  <text transform="rotate(26 0,0)" class="text5"><textPath href="#circle5">ANIMATION</textPath></text>
  <line transform="rotate(69 0,0)" x1="-500" x2="-400" y1="0" y2="0" class="line5"/>
  <text transform="rotate(75 0,0)" class="text5"><textPath href="#circle5">CARTON</textPath></text>
  <line transform="rotate(109 0,0)" x1="-500" x2="-400" y1="0" y2="0" class="line5"/>
  <text transform="rotate(115 0,0)" class="text5"><textPath href="#circle5">ENGINEER</textPath></text>
  <line transform="rotate(155 0,0)" x1="-500" x2="-400" y1="0" y2="0" class="line5"/>
  <text transform="rotate(161 0,0)" class="text5"><textPath href="#circle5">CARBON</textPath></text>
  <line transform="rotate(195 0,0)" x1="-500" x2="-400" y1="0" y2="0" class="line5"/>
  <text transform="rotate(201 0,0)" class="text5"><textPath href="#circle5">BACTERIAL</textPath></text>
  <line transform="rotate(244 0,0)" x1="-500" x2="-400" y1="0" y2="0" class="line5"/>
  <text transform="rotate(250 0,0)" class="text5"><textPath href="#circle5">CLEAN</textPath></text>
  <line transform="rotate(278 0,0)" x1="-500" x2="-400" y1="0" y2="0" class="line5"/>
  <text transform="rotate(284 0,0)" class="text5"><textPath href="#circle5">ADJUST</textPath></text>
  <line transform="rotate(316 0,0)" x1="-500" x2="-400" y1="0" y2="0" class="line5"/>
  <text transform="rotate(322 0,0)" class="text5"><textPath href="#circle5">CYANO</textPath></text>
  <line transform="rotate(351 0,0)" x1="-500" x2="-400" y1="0" y2="0" class="line5"/>
  <text transform="rotate(357 0,0)" class="text5"><textPath href="#circle5">HEAT</textPath></text>

</svg>
